<svg width="360" height="418" viewBox="0 0 360 418" fill="none" xmlns="http://www.w3.org/2000/svg">
<mask id="mask0_1770_8675" style="mask-type:alpha" maskUnits="userSpaceOnUse" x="0" y="0" width="360" height="418">
<rect width="360" height="418" fill="url(#paint0_linear_1770_8675)"/>
</mask>
<g mask="url(#mask0_1770_8675)">
<mask id="mask1_1770_8675" style="mask-type:alpha" maskUnits="userSpaceOnUse" x="0" y="-1" width="360" height="683">
<path d="M0 31C0 13.3269 14.3269 -1 32 -1H328C345.673 -1 360 13.3269 360 31V650C360 667.673 345.673 682 328 682H32C14.3269 682 0 667.673 0 650V31Z" fill="url(#paint1_linear_1770_8675)"/>
</mask>
<g mask="url(#mask1_1770_8675)">
<rect x="4" y="-137" width="1" height="824" fill="#7175D9"/>
<rect x="55" y="-137" width="1" height="824" fill="#7175D9"/>
<rect x="105" y="-137" width="1" height="824" fill="#7175D9"/>
<rect x="156" y="-137" width="1" height="824" fill="#7175D9"/>
<rect x="207" y="-137" width="1" height="824" fill="#7175D9"/>
<rect x="207" y="-137" width="1" height="824" fill="#7175D9"/>
<rect x="257" y="-137" width="1" height="824" fill="#7175D9"/>
<rect x="333" y="-137" width="1" height="824" fill="#7175D9"/>
<rect x="29" y="-137" width="1" height="824" fill="#7175D9"/>
<rect x="80" y="-137" width="1" height="824" fill="#7175D9"/>
<rect x="131" y="-137" width="1" height="824" fill="#7175D9"/>
<rect x="181" y="-137" width="1" height="824" fill="#7175D9"/>
<rect x="232" y="-137" width="1" height="824" fill="#7175D9"/>
<rect x="308" y="-137" width="1" height="824" fill="#7175D9"/>
<rect x="283" y="-137" width="1" height="824" fill="#7175D9"/>
<rect x="358" y="-137" width="1" height="824" fill="#7175D9"/>
<rect x="568" y="20" width="1.00004" height="824" transform="rotate(90 568 20)" fill="#7175D9"/>
<rect x="568" y="72" width="1.00004" height="824" transform="rotate(90 568 72)" fill="#7175D9"/>
<rect x="568" y="122" width="1.00004" height="824" transform="rotate(90 568 122)" fill="#7175D9"/>
<rect x="568" y="173" width="1.00004" height="824" transform="rotate(90 568 173)" fill="#7175D9"/>
<rect x="568" y="223" width="1.00004" height="824" transform="rotate(90 568 223)" fill="#7175D9"/>
<rect x="568" y="274" width="1.00004" height="824" transform="rotate(90 568 274)" fill="#7175D9"/>
<rect x="568" y="325" width="1.00004" height="824" transform="rotate(90 568 325)" fill="#7175D9"/>
<rect x="568" y="325" width="1.00004" height="824" transform="rotate(90 568 325)" fill="#7175D9"/>
<rect x="568" y="375" width="1.00004" height="824" transform="rotate(90 568 375)" fill="#7175D9"/>
<rect x="568" y="45" width="1.00004" height="824" transform="rotate(90 568 45)" fill="#7175D9"/>
<rect x="568" y="97" width="1.00004" height="824" transform="rotate(90 568 97)" fill="#7175D9"/>
<rect x="568" y="147" width="1.00004" height="824" transform="rotate(90 568 147)" fill="#7175D9"/>
<rect x="568" y="198" width="1.00004" height="824" transform="rotate(90 568 198)" fill="#7175D9"/>
<rect x="568" y="249" width="1.00004" height="824" transform="rotate(90 568 249)" fill="#7175D9"/>
<rect x="568" y="299" width="1.00004" height="824" transform="rotate(90 568 299)" fill="#7175D9"/>
<rect x="568" y="350" width="1.00004" height="824" transform="rotate(90 568 350)" fill="#7175D9"/>
<rect x="568" y="401" width="1.00004" height="824" transform="rotate(90 568 401)" fill="#7175D9"/>
</g>
</g>
<defs>
<linearGradient id="paint0_linear_1770_8675" x1="180" y1="0" x2="180" y2="418" gradientUnits="userSpaceOnUse">
<stop stop-color="#121319" stop-opacity="0"/>
<stop offset="0.572917" stop-color="#121319"/>
<stop offset="1" stop-color="#121319" stop-opacity="0"/>
</linearGradient>
<linearGradient id="paint1_linear_1770_8675" x1="180" y1="-1" x2="180" y2="682" gradientUnits="userSpaceOnUse">
<stop offset="0.973958" stop-color="#514ED8"/>
<stop offset="1" stop-color="#514ED8" stop-opacity="0"/>
</linearGradient>
</defs>
</svg>
